<?xml version="1.0" encoding="utf-8"?><svg xmlns="http://www.w3.org/2000/svg" xmlns:xlink="http://www.w3.org/1999/xlink"><symbol fill="none" viewBox="0 0 200 34" id="logo" xmlns="http://www.w3.org/2000/svg"><path d="M135.73 9.81c-1.245-1.491-2.944-2.237-5.152-2.237-2.265 0-4.247.918-5.946 2.754V6.712l-6.852 4.418v16.925h6.852V15.548c.849-1.205 1.925-1.779 3.284-1.779.85 0 1.529.287 2.039.803.509.517.792 1.377.792 2.467v10.959h6.852V15.72c0-2.41-.623-4.418-1.869-5.91zM87.203 9.696C85.9 8.319 84.2 7.63 82.106 7.63c-1.302 0-2.548.287-3.68.918-1.19.631-2.095 1.435-2.718 2.353a6.684 6.684 0 00-2.209-2.353 5.785 5.785 0 00-3.227-.975c-2.605 0-4.644.975-6.06 2.869v-3.73l-6.85 4.418v16.868h6.85V15.605c.737-1.205 1.813-1.836 3.115-1.836 1.642 0 2.492 1.09 2.492 3.213v11.073h6.851v-12.45c.68-1.205 1.756-1.836 3.115-1.836 1.642 0 2.491 1.09 2.491 3.213v11.073h6.852v-12.45c0-2.582-.623-4.532-1.925-5.91zM111.268 25.588c-2.095 2.008-4.7 2.984-7.927 2.984-3.228 0-5.89-.976-7.928-2.984-2.095-2.008-3.114-4.475-3.114-7.515 0-2.984 1.02-5.45 3.114-7.459 2.096-2.008 4.757-3.04 7.928-3.04 3.171 0 5.832 1.032 7.927 3.04 2.095 2.008 3.115 4.475 3.115 7.459.056 3.04-1.02 5.507-3.115 7.515zm-3.567-7.515c0-1.263-.396-2.353-1.246-3.213-.849-.86-1.868-1.32-3.114-1.32-1.246 0-2.265.46-3.115 1.32-.849.86-1.245 1.95-1.245 3.213 0 1.32.396 2.41 1.245 3.27.793.86 1.869 1.32 3.115 1.32 1.246 0 2.321-.46 3.114-1.32.793-.86 1.246-1.95 1.246-3.27zM168.516 28.572c-3.057 0-5.662-.918-7.814-2.811-2.095-1.894-3.171-4.476-3.171-7.631 0-2.983.963-5.45 2.888-7.458 1.925-2.008 4.417-3.041 7.531-3.041 2.831 0 5.096.975 6.795 2.926 1.755 1.893 2.661 4.418 2.661 7.516v1.72h-13.193c1.529 4.648 8.607 4.82 12.061 1.951v4.762c-1.812 1.377-4.417 2.066-7.758 2.066zm-4.303-12.507h6.512c0-.976-.34-1.779-.906-2.41-.623-.631-1.303-.918-2.152-.918-.906 0-1.642.287-2.265.918-.68.574-1.019 1.377-1.189 2.41zM185.051 28.055h-7.418l7.078-10.27-6.568-9.638h7.474l3.228 4.934 3.227-4.934h7.418l-6.568 9.638L200 28.113h-7.531l-3.624-5.508-3.794 5.45zM150.51 13.655v14.343h-6.852V13.655h-3.284V8.09h3.284V7.057c0-2.123.623-3.844 1.869-5.106C146.772.688 148.528 0 150.849 0c2.039 0 3.851.287 5.38.86v4.763h-3.398c-1.585 0-2.378.688-2.378 2.122v.345h5.719v5.565h-5.662z" fill="#fff"/><path d="M31.484 12.106l-11.552 7.802 8.38-9.925-12.57-8.549L0 12.048v21.285l12.57-8.49-8.38-9.926 11.552 7.803 15.742 10.613L47.225 22.72V1.433L31.484 12.106z" fill="#0FD"/></symbol></svg>