<svg width="100" height="100" viewBox="0 0 100 100" fill="none" xmlns="http://www.w3.org/2000/svg">
<path d="M90.7009 72.6667H3.71996L2 77.9136V84H92.4209V77.9136L90.7009 72.6667ZM61.7072 81.6914H32.4679V78.5432H61.4615V81.6914H61.7072Z" fill="#1B1A22"/>
<path d="M87.7839 40.9521L80.9999 46.7967V64.5554H13.421V21.8446H80.739V38.9289L87.0011 33.5339C86.2183 32.4099 85.9574 31.286 85.9574 30.162C85.9574 28.5884 86.7402 27.0149 87.7839 25.8909V16H6.63696V70.4H87.7839V40.9521Z" fill="#1B1A22"/>
<path d="M92.6529 25.0667C89.6388 25.0667 87.3204 27.3333 87.3204 30.28C87.3204 31.64 87.7841 33 88.7115 33.9067L73.8732 48.4133C73.4095 48.1867 72.7139 48.1867 72.0184 48.1867C70.8591 48.1867 69.9317 48.4133 69.0043 49.0933L57.8756 36.6267C58.3393 35.72 58.803 34.8133 58.803 33.68C58.803 30.7333 56.4845 28.4667 53.4705 28.4667C50.4565 28.4667 48.138 30.7333 48.138 33.68C48.138 34.8133 48.3698 35.72 49.0654 36.6267L34.9226 50.2267C34.2271 49.7733 33.2997 49.5467 32.3723 49.5467C29.3583 49.5467 27.0398 51.8133 27.0398 54.76C27.0398 57.7067 29.3583 59.9733 32.3723 59.9733C35.3863 59.9733 37.7048 57.7067 37.7048 54.76C37.7048 53.6267 37.2411 52.4933 36.7774 51.5867L50.6883 37.9867C51.6157 38.44 52.5431 38.6667 53.4705 38.6667C54.3979 38.6667 55.3253 38.44 56.2527 37.9867L67.3814 50.4533C66.9177 51.1333 66.6859 52.04 66.6859 53.1733C66.6859 56.12 69.0043 58.3867 72.0184 58.3867C75.0324 58.3867 77.3509 56.12 77.3509 53.1733C77.3509 51.8133 76.8872 50.4533 75.9598 49.5467L90.7981 35.04C91.2618 35.2667 91.9573 35.2667 92.6529 35.2667C95.6669 35.2667 97.9854 33 97.9854 30.0533C98.2172 27.3333 95.6669 25.0667 92.6529 25.0667Z" fill="#ED145B"/>
</svg>
