<svg width="100" height="100" viewBox="0 0 100 100" fill="none" xmlns="http://www.w3.org/2000/svg">
<path d="M37.596 93.8733L36.0726 98H76.5494L75.0261 93.8733H37.596Z" fill="#1B1A22"/>
<path d="M66.7564 31.104V36.7511H86.1243V77.3665H24.974V69.3303H19.3159V85.4027H43.0362V93.0045H69.5854V85.4027H91.9999V31.104H66.7564Z" fill="#1B1A22"/>
<path d="M71.1089 60.2081L73.2851 71.0678L76.1141 68.0271L81.3369 72.1538L85.0364 67.8099L79.8136 63.466L82.6426 60.4253L71.1089 60.2081Z" fill="#1B1A22"/>
<path d="M61.7513 36.7511H53.0466V56.2986H61.7513V36.7511Z" fill="#ED145B"/>
<path d="M48.6942 23.7195H39.9895V56.2986H48.6942V23.7195Z" fill="#ED145B"/>
<path d="M35.6373 10.6878H26.9326V56.2986H35.6373V10.6878Z" fill="#ED145B"/>
<path d="M22.5802 2H13.8755V56.2986H22.5802V2Z" fill="#ED145B"/>
<path d="M68.9327 60.4253H8V67.1584H68.9327V60.4253Z" fill="#1B1A22"/>
</svg>
