<svg width="200" height="34" viewBox="0 0 200 34" fill="none" xmlns="http://www.w3.org/2000/svg">
<path d="M135.73 9.81051C134.485 8.31883 132.786 7.57299 130.578 7.57299C128.313 7.57299 126.331 8.49095 124.632 10.3269V6.7124L117.78 11.1301V28.0549H124.632V15.5478C125.481 14.3429 126.557 13.7692 127.916 13.7692C128.766 13.7692 129.445 14.0561 129.955 14.5724C130.464 15.0888 130.747 15.9494 130.747 17.0394V27.9976H137.599V15.7199C137.599 13.3102 136.976 11.3022 135.73 9.81051Z" fill="white"/>
<path d="M87.2027 9.69577C85.9003 8.31883 84.2015 7.63036 82.1064 7.63036C80.804 7.63036 79.5583 7.91722 78.4258 8.54832C77.2366 9.17941 76.3306 9.98263 75.7077 10.9006C75.1981 9.98263 74.462 9.17941 73.4994 8.54832C72.5367 7.91722 71.4609 7.57299 70.2717 7.57299C67.667 7.57299 65.6285 8.54832 64.2128 10.4416V6.7124L57.3612 11.1301V27.9976H64.2128V15.6051C64.949 14.4003 66.0249 13.7692 67.3272 13.7692C68.9694 13.7692 69.8187 14.8593 69.8187 16.9821V28.0549H76.6704V15.6051C77.3499 14.4003 78.4258 13.7692 79.7848 13.7692C81.4269 13.7692 82.2763 14.8593 82.2763 16.9821V28.0549H89.1279V15.6051C89.1279 13.0234 88.505 11.0727 87.2027 9.69577Z" fill="white"/>
<path d="M111.268 25.5884C109.173 27.5965 106.568 28.5718 103.341 28.5718C100.113 28.5718 97.4518 27.5965 95.4133 25.5884C93.3182 23.5804 92.299 21.1134 92.299 18.0726C92.299 15.0893 93.3182 12.6223 95.4133 10.6142C97.5085 8.60619 100.17 7.57349 103.341 7.57349C106.512 7.57349 109.173 8.60619 111.268 10.6142C113.363 12.6223 114.383 15.0893 114.383 18.0726C114.439 21.1134 113.363 23.5804 111.268 25.5884ZM107.701 18.0726C107.701 16.8104 107.305 15.7204 106.455 14.8598C105.606 13.9992 104.587 13.5402 103.341 13.5402C102.095 13.5402 101.076 13.9992 100.226 14.8598C99.3771 15.7204 98.9807 16.8104 98.9807 18.0726C98.9807 19.3922 99.3771 20.4823 100.226 21.3429C101.019 22.2035 102.095 22.6624 103.341 22.6624C104.587 22.6624 105.662 22.2035 106.455 21.3429C107.248 20.4823 107.701 19.3922 107.701 18.0726Z" fill="white"/>
<path d="M168.516 28.5718C165.459 28.5718 162.854 27.6538 160.702 25.7605C158.607 23.8673 157.531 21.2855 157.531 18.13C157.531 15.1466 158.494 12.6796 160.419 10.6716C162.344 8.66356 164.836 7.63086 167.95 7.63086C170.781 7.63086 173.046 8.60619 174.745 10.5569C176.5 12.4501 177.406 14.9745 177.406 18.0726V19.7938H164.213C165.742 24.441 172.82 24.6131 176.274 21.7445V26.5064C174.462 27.8833 171.857 28.5718 168.516 28.5718ZM164.213 16.0646H170.725C170.725 15.0893 170.385 14.2861 169.819 13.655C169.196 13.0239 168.516 12.737 167.667 12.737C166.761 12.737 166.025 13.0239 165.402 13.655C164.722 14.2287 164.383 15.0319 164.213 16.0646Z" fill="white"/>
<path d="M185.051 28.0552H177.633L184.711 17.7855L178.143 8.14697H185.617L188.845 13.081L192.072 8.14697H199.49L192.922 17.7855L200 28.1126H192.469L188.845 22.6048L185.051 28.0552Z" fill="white"/>
<path d="M150.51 13.6546V27.9977H143.658V13.6546H140.374V8.08951H143.658V7.05681C143.658 4.93403 144.281 3.21285 145.527 1.95066C146.772 0.688469 148.528 0 150.849 0C152.888 0 154.7 0.286862 156.229 0.860586V5.6225C156.229 5.6225 154.02 5.6225 152.831 5.6225C151.246 5.6225 150.453 6.31096 150.453 7.74527V8.08951H156.172V13.6546H150.51Z" fill="white"/>
<path d="M31.4836 12.1056L19.932 19.9082L28.3126 9.98281L15.7418 1.43433L0 12.0482V33.3334L12.5708 24.8423L4.19026 14.9168L15.7418 22.7195L31.4836 33.3334L47.2254 22.7195V1.43433L31.4836 12.1056Z" fill="#00FFDD"/>
</svg>
