<svg width="82" height="87" viewBox="0 0 82 87" fill="none" xmlns="http://www.w3.org/2000/svg">
<path d="M31.8614 75.3104V76.6455C32.5298 77.3131 32.7526 77.9807 32.7526 79.0933C32.7526 80.8735 31.1929 82.4312 29.4105 82.4312C27.628 82.4312 26.0684 80.8735 26.0684 79.0933C26.0684 78.2032 26.514 77.3131 26.9596 76.6455V75.3104C25.8456 76.2005 24.9543 77.5356 24.9543 79.0933C24.9543 81.5411 26.9596 83.5438 29.4105 83.5438C31.8614 83.5438 33.8666 81.5411 33.8666 79.0933C33.8666 77.5356 32.9754 76.2005 31.8614 75.3104Z" fill="#1B1A22"/>
<path d="M29.8562 73.9753H28.7422V78.2032H29.8562V73.9753Z" fill="#1B1A22"/>
<path d="M55.0333 68.8572L53.0281 67.077V70.86C53.0281 71.0825 53.0281 71.0824 53.0281 71.0824H6.0158V70.86V6.0081H53.0281V25.2426C53.9193 25.9101 54.8105 26.5777 55.7017 27.2453C57.0386 28.3579 58.1526 29.693 59.0438 31.0281V0H0V80.4285C0 83.9889 2.00526 86.6591 4.67894 86.6591H54.1421C56.8158 86.6591 58.821 83.7663 58.821 80.4285V74.4203L56.593 72.4176C55.7017 71.5275 55.0333 70.1923 55.0333 68.8572ZM29.4105 84.879C26.2912 84.879 23.6175 82.2086 23.6175 79.0933C23.6175 75.978 26.2912 73.3077 29.4105 73.3077C32.5298 73.3077 35.2035 75.978 35.2035 79.0933C35.2035 82.2086 32.5298 84.879 29.4105 84.879Z" fill="#1B1A22"/>
<path d="M80.8791 75.978L66.1738 62.404C65.2826 61.7364 64.3914 61.2914 63.2773 61.5139L58.3756 57.0634C63.9458 48.1625 62.6089 36.1462 54.5878 28.5804C45.4528 20.1245 31.1931 20.792 22.7265 29.9155C14.2598 39.039 14.9282 53.2806 24.0633 61.7365C31.8615 68.8572 43.4475 69.5248 51.9142 63.9617L56.8159 68.4122C56.5931 69.5248 57.0387 70.6374 57.93 71.5275L72.6352 85.1015C74.1949 86.4366 76.4229 86.4366 77.7598 84.8789L81.1019 81.3185C82.4387 79.5383 82.2159 77.3131 80.8791 75.978ZM50.5773 55.5058C45.0072 61.5139 35.4264 61.959 29.1879 56.1734C22.9493 50.3877 22.5036 40.8192 28.0738 34.8111C33.644 28.8029 43.2247 28.3579 49.4633 34.1435C55.4791 39.7066 56.1475 49.2751 50.5773 55.5058Z" fill="#ED145B"/>
<path d="M42.1104 42.5994C39.4367 41.7093 38.3227 41.0417 38.3227 39.9291C38.3227 39.039 38.9911 38.1489 40.9964 38.1489C43.2245 38.1489 44.5613 38.8165 45.4525 39.2615L46.3438 35.9237C45.2297 35.4786 43.8929 35.0336 41.8876 34.8111V32.1408H38.9911V35.0336C35.649 35.7012 33.8666 37.7039 33.8666 40.3742C33.8666 43.267 36.0946 44.8246 39.4368 45.9373C41.6648 46.6048 42.7789 47.495 42.7789 48.6076C42.7789 49.7202 41.6648 50.3877 39.8824 50.3877C37.8771 50.3877 36.0946 49.7202 34.7578 49.0526L33.8666 52.613C34.9806 53.2806 36.9859 53.7256 38.9911 53.9481V56.8409H42.1104V53.7256C45.6753 53.058 47.4578 50.8328 47.4578 48.1625C47.235 45.4922 45.6753 43.9346 42.1104 42.5994Z" fill="#1B1A22"/>
</svg>
